<?xml version="1.0" standalone="no"?>
<!DOCTYPE svg PUBLIC "-//W3C//DTD SVG 20010904//EN"
 "http://www.w3.org/TR/2001/REC-SVG-20010904/DTD/svg10.dtd">
<svg version="1.0" xmlns="http://www.w3.org/2000/svg"
 width="357.864261pt" height="274.004321pt" viewBox="0 0 357.864261 274.004321"
 preserveAspectRatio="xMidYMid meet">
<metadata>
Created by potrace 1.12, written by Peter Selinger 2001-2015
</metadata>
<g transform="translate(-71.135739,386.003545) scale(0.100000,-0.100000)"
fill="#000000" stroke="none">
<path d="M2347 3833 c5 -16 8 -45 8 -65 -1 -41 8 -45 74 -32 25 5 31 11 30 33
l0 26 -11 -23 c-20 -42 -43 -23 -43 36 l0 52 -33 0 c-31 0 -32 -2 -25 -27z"/>
<path d="M2594 3815 c-1 -25 -7 -51 -13 -59 -10 -12 -6 -17 26 -25 53 -15 79
-14 97 5 17 17 8 47 -16 57 -8 3 -6 6 5 6 54 3 -18 61 -75 61 -20 0 -23 -5
-24 -45z m76 11 c0 -17 -14 -29 -23 -20 -8 8 3 34 14 34 5 0 9 -6 9 -14z m-4
-51 c8 -20 -16 -49 -29 -36 -11 11 0 51 14 51 5 0 12 -7 15 -15z"/>
<path d="M2195 3822 c-15 -10 -16 -144 -2 -139 7 2 12 12 12 22 0 10 10 21 23
26 17 6 22 5 22 -8 0 -12 7 -14 32 -9 17 3 33 8 35 9 5 5 -93 107 -103 107 -5
0 -13 -4 -19 -8z m33 -65 c2 -10 -3 -17 -12 -17 -10 0 -16 9 -16 21 0 24 23
21 28 -4z"/>
<path d="M2781 3808 c2 -7 -3 -32 -11 -56 -12 -39 -12 -45 6 -61 46 -45 69
-37 119 41 20 31 21 37 8 42 -21 8 -23 8 -23 -9 0 -30 -34 -85 -52 -85 -29 0
-31 24 -8 71 19 41 19 45 3 56 -22 17 -45 17 -42 1z"/>
<path d="M2058 3764 l-27 -14 24 -37 c14 -19 25 -44 25 -54 0 -23 19 -24 46
-4 13 10 15 17 8 22 -13 10 -34 49 -43 79 -6 21 -8 21 -33 8z"/>
<path d="M2965 3711 c-3 -11 -19 -34 -35 -51 l-28 -30 26 -21 27 -21 3 21 c2
12 8 21 14 21 6 0 8 -10 5 -22 -4 -14 0 -29 10 -40 23 -25 33 -22 33 10 0 18
7 30 22 37 35 16 33 34 -11 76 -47 44 -57 47 -66 20z m65 -40 c0 -24 -27 -48
-40 -35 -6 6 -4 18 6 32 19 27 34 28 34 3z"/>
<path d="M1929 3687 c-58 -45 -38 -127 32 -127 39 0 69 32 69 73 l-1 32 -14
-32 c-9 -22 -21 -33 -35 -33 -23 0 -60 33 -60 54 0 21 20 30 33 17 18 -18 49
-14 45 7 -4 21 -47 27 -69 9z"/>
<path d="M1809 3578 c-8 -7 -24 -25 -37 -39 l-23 -26 46 -45 45 -45 40 43 c22
24 40 45 40 48 0 2 -8 10 -17 17 -15 12 -16 12 -11 -8 7 -28 -22 -59 -40 -41
-15 15 -16 32 -2 23 16 -10 12 11 -5 25 -12 10 -15 10 -15 -4 0 -20 -14 -21
-30 -1 -18 21 5 48 34 39 18 -6 19 -5 7 10 -16 19 -14 19 -32 4z"/>
<path d="M3102 3580 c-26 -11 -44 -51 -35 -77 9 -28 45 -63 62 -63 9 0 24 7
33 14 16 12 16 14 -6 35 l-23 22 -6 -21 c-6 -23 -27 -19 -27 5 0 25 45 69 64
62 14 -6 16 -14 11 -38 -6 -26 -4 -30 11 -27 27 5 28 32 2 61 -27 30 -55 39
-86 27z"/>
<path d="M2400 3550 c-125 -15 -237 -74 -340 -179 -76 -77 -123 -161 -146
-257 -15 -67 -15 -165 1 -211 7 -21 -5 -36 -60 -76 -17 -13 -18 -20 -9 -53 6
-24 15 -38 23 -36 10 2 12 -12 6 -68 -9 -86 4 -122 54 -156 35 -24 35 -24 9
-24 -99 0 -143 -118 -103 -275 43 -163 203 -345 305 -345 54 0 141 48 165 91
11 20 28 48 39 63 14 20 17 36 12 66 -5 35 -2 45 30 86 19 26 46 69 60 95 21
42 29 49 61 54 93 15 200 37 226 45 26 9 27 8 21 -18 -17 -70 -30 -87 -77 -99
-36 -10 -50 -20 -63 -45 -9 -18 -27 -45 -41 -60 -20 -20 -27 -43 -34 -100 -12
-106 -12 -106 24 -128 109 -67 382 -103 496 -65 69 23 121 68 121 105 0 16 -4
31 -9 34 -5 3 -12 23 -16 43 -15 83 -73 133 -152 133 -21 -1 -49 -7 -62 -14
-30 -16 -67 -4 -76 25 -4 11 -13 26 -22 34 -14 14 -13 24 7 98 12 45 24 87 26
94 2 7 27 24 56 39 78 39 136 84 159 121 16 26 20 46 17 94 -2 36 1 63 8 67 6
4 16 17 23 30 10 18 9 29 -3 53 -20 39 -12 57 21 51 25 -5 26 -4 20 34 -5 29
-18 49 -52 79 -45 40 -84 115 -78 147 6 24 -59 155 -111 226 -115 156 -311
230 -536 202z m244 -31 c80 -16 180 -75 242 -143 50 -55 144 -219 144 -250 0
-16 -55 -67 -100 -94 -86 -50 -290 -115 -465 -147 -85 -15 -405 -34 -405 -23
0 3 9 30 19 61 16 45 17 57 6 57 -16 0 -71 -162 -109 -318 -26 -104 -25 -133
6 -145 7 -3 9 -6 3 -6 -21 -2 -76 40 -86 67 -14 33 -1 140 35 288 14 55 26
106 28 114 7 29 -20 18 -29 -12 -11 -32 -11 -31 -12 24 -2 130 47 253 140 353
157 167 339 222 583 174z m477 -565 c9 -12 2 -14 -40 -14 -44 0 -51 3 -51 19
0 11 -11 33 -25 49 -13 16 -22 32 -18 35 6 7 115 -66 134 -89z m-125 41 c46
-70 -47 -159 -207 -199 -105 -26 -280 -18 -279 13 1 12 49 41 54 32 10 -16 94
-22 156 -11 118 21 186 74 178 138 -4 38 27 42 40 5 6 -15 11 -21 11 -13 0 8
-3 22 -8 30 -6 8 -7 18 -5 22 10 17 44 7 60 -17z m-118 -42 c-3 -24 -10 -29
-53 -41 -27 -7 -88 -24 -134 -38 -79 -24 -131 -26 -131 -4 0 5 19 14 43 20 74
20 201 60 232 74 43 20 47 19 43 -11z m270 -35 c27 -27 12 -34 -60 -30 -40 2
-75 6 -77 8 -2 2 2 10 9 19 15 18 110 21 128 3z m-316 -34 c-22 -15 -156 -48
-174 -42 -8 3 164 56 187 57 5 1 -1 -6 -13 -15z m-292 -13 c0 -19 -55 -62
-105 -80 -153 -58 -395 -42 -395 24 0 36 13 37 57 5 23 -17 56 -32 74 -35 34
-6 34 -6 -5 9 -21 8 -46 22 -55 30 -14 15 -14 16 2 16 10 0 29 -7 43 -17 51
-33 259 -11 294 32 7 8 19 15 27 15 13 0 13 -3 3 -16 -19 -22 -47 -35 -115
-55 -33 -10 -50 -18 -38 -18 40 -2 117 31 156 65 36 33 57 42 57 25z m-163
-32 c-26 -15 -185 -25 -172 -11 6 6 42 13 80 15 39 1 79 4 90 5 19 1 19 1 2
-9z m753 -58 c0 -36 -56 -72 -135 -85 -40 -7 -40 -7 22 29 35 20 71 47 80 60
20 25 33 24 33 -4z m-1240 -2 c0 -24 -23 -21 -28 4 -2 10 3 17 12 17 10 0 16
-9 16 -21z m247 -36 c73 -9 133 -55 133 -100 0 -23 -2 -22 -53 16 -29 22 -83
54 -120 71 -37 18 -67 36 -67 41 0 5 13 3 30 -6 16 -8 51 -18 77 -22z m398 28
c17 -7 8 -14 -55 -46 -41 -20 -100 -52 -131 -71 -31 -19 -59 -34 -63 -34 -3 0
-6 13 -6 30 0 28 7 33 98 79 98 50 120 56 157 42z m-179 -29 c-3 -5 -23 -17
-45 -26 -39 -18 -40 -18 -66 2 l-26 21 53 4 c29 2 61 4 71 5 10 1 16 -2 13 -6z
m734 -95 c0 -76 -46 -121 -195 -193 -183 -87 -446 -133 -611 -105 -67 12 -71
14 -83 46 -6 18 -23 50 -37 70 l-25 37 24 -6 c131 -32 352 -35 475 -4 108 26
239 82 316 133 81 55 118 75 128 69 4 -3 8 -24 8 -47z m-502 11 c-5 -15 -41
-26 -90 -27 -53 -1 -56 16 -6 27 63 14 100 14 96 0z m367 -9 c-46 -31 -123
-69 -193 -95 l-64 -24 63 57 c66 62 107 80 179 82 l45 1 -30 -21z m-210 -55
c-22 -18 -65 -48 -95 -66 -46 -27 -65 -32 -120 -32 -54 -1 -78 5 -140 34 l-75
35 95 7 c88 7 348 53 359 63 2 3 7 2 10 -1 3 -3 -12 -21 -34 -40z m-660 -4
l70 -16 -67 -23 c-87 -29 -114 -22 -109 29 4 30 11 41 23 34 7 -4 44 -15 83
-24z m275 -67 l65 -31 -45 -1 c-41 -1 -161 16 -249 35 l-33 7 28 13 c51 24
160 13 234 -23z m-223 -67 c35 -38 63 -116 64 -180 0 -23 4 -61 8 -86 8 -40 9
-41 10 -12 1 40 22 50 57 27 49 -32 78 -130 53 -177 -11 -19 -12 -18 -29 18
l-18 39 5 -61 c5 -53 3 -64 -16 -83 -30 -30 -38 -26 -46 17 -3 21 -24 64 -45
96 -45 66 -75 141 -95 238 -16 74 -33 114 -71 165 -22 29 -22 32 -6 37 44 12
97 -3 129 -38z m-194 -14 c30 -31 52 -88 63 -159 7 -51 40 -151 55 -168 17
-18 9 -24 -57 -45 -36 -11 -68 -20 -70 -20 -10 0 -59 98 -75 151 -33 106 -20
230 28 258 25 15 26 14 56 -17z m54 6 c33 -36 50 -79 77 -186 26 -105 48 -157
98 -230 17 -24 32 -61 35 -83 7 -50 -3 -51 -16 -1 -6 20 -29 59 -51 86 -54 65
-96 156 -111 241 -15 90 -34 144 -61 172 -16 18 -18 23 -6 23 8 0 24 -10 35
-22z m853 -61 c0 -25 -32 -122 -56 -169 -21 -41 -29 -48 -54 -48 -35 0 -37 8
-11 58 10 20 27 63 37 96 12 38 25 61 39 66 30 13 45 12 45 -3z m-537 -63 c33
-7 33 -10 1 -58 -20 -30 -31 -37 -47 -32 -12 3 -27 6 -34 6 -6 0 -13 21 -15
50 l-3 50 35 -6 c19 -3 47 -8 63 -10z m106 -56 c-12 -24 -33 -58 -47 -77 l-25
-34 -22 27 -22 28 31 48 c28 44 35 49 69 49 l37 1 -21 -42z m279 -53 c-7 -15
-17 -24 -25 -21 -7 3 -13 1 -13 -4 0 -13 60 -50 82 -50 27 0 67 21 62 34 -2 6
0 17 5 25 8 12 12 12 25 2 25 -21 20 -67 -10 -90 -17 -14 -21 -21 -12 -21 9 0
27 12 41 26 33 33 50 24 30 -17 -8 -17 -13 -33 -9 -36 3 -3 11 6 17 21 41 90
196 84 235 -9 22 -53 18 -80 -16 -109 -64 -54 -190 -67 -340 -36 -141 29 -206
58 -215 98 -6 30 24 122 40 122 4 0 16 -11 27 -25 11 -14 26 -25 33 -25 9 0 5
9 -10 25 -14 13 -25 34 -25 45 0 27 43 70 69 70 18 0 19 -3 9 -25z m-576 -193
c43 -56 61 -97 53 -123 -8 -25 -29 -24 -90 5 -45 20 -135 105 -135 126 0 8 93
38 120 39 9 1 32 -21 52 -47z m508 -72 c76 -30 194 -50 292 -50 102 1 150 14
203 54 34 26 35 26 35 6 0 -46 -83 -91 -195 -105 -93 -12 -322 35 -389 79 -30
19 -37 53 -8 41 9 -4 37 -16 62 -25z"/>
<path d="M2648 3479 c-10 -5 -18 -17 -18 -26 0 -15 2 -15 18 0 22 20 53 22 70
5 7 -7 12 -8 12 -2 0 30 -48 43 -82 23z"/>
<path d="M2326 3428 c-21 -29 -13 -35 13 -9 25 25 30 26 59 5 23 -16 30 -6 10
14 -20 20 -65 14 -82 -10z"/>
<path d="M2667 3399 c-27 -16 -49 -67 -46 -109 2 -21 -3 -45 -10 -54 -17 -20
-3 -20 23 -1 32 24 75 3 76 -37 0 -31 -30 -50 -68 -43 -24 4 -32 3 -27 -5 5
-8 22 -10 49 -6 22 4 55 8 71 9 67 7 105 48 105 115 0 79 -53 142 -119 142
-20 0 -44 -5 -54 -11z m107 -20 c60 -47 74 -127 30 -178 -18 -22 -35 -31 -55
-31 -16 0 -29 5 -29 11 0 5 4 8 9 5 17 -11 39 5 50 34 13 40 -3 96 -35 116
-23 15 -26 15 -44 -1 -28 -25 -27 -65 2 -65 15 0 19 -3 12 -10 -6 -6 -25 -7
-42 -4 -38 8 -49 35 -32 79 23 62 85 83 134 44z"/>
<path d="M2347 3349 c-72 -42 -55 -194 27 -233 50 -24 74 -20 112 18 29 29 34
41 34 83 0 57 -26 105 -69 128 -34 17 -78 19 -104 4z m125 -39 c67 -73 37
-190 -49 -190 -47 0 -79 25 -99 76 -44 116 68 203 148 114z"/>
<path d="M2372 3278 c-7 -7 -12 -22 -12 -35 0 -17 6 -23 23 -23 21 -1 21 -1 4
-15 -24 -18 -14 -52 19 -67 35 -16 57 8 57 61 0 71 -53 117 -91 79z"/>
<path d="M2267 3082 c-19 -20 -23 -52 -7 -52 6 0 10 7 10 16 0 12 7 9 33 -10
18 -14 53 -34 77 -45 47 -21 130 -28 130 -11 0 6 -15 10 -33 10 -18 0 -54 7
-79 15 -52 18 -124 74 -95 75 9 0 17 5 17 10 0 17 -36 11 -53 -8z"/>
<path d="M2932 2910 c-10 -21 -30 -37 -73 -57 -32 -15 -57 -29 -54 -31 2 -2
28 7 59 21 52 24 92 65 84 87 -1 5 -9 -3 -16 -20z"/>
<path d="M2720 2810 c-34 -7 -34 -7 -5 -8 17 0 39 3 50 8 24 10 4 10 -45 0z"/>
<path d="M2603 2803 c9 -2 25 -2 35 0 9 3 1 5 -18 5 -19 0 -27 -2 -17 -5z"/>
<path d="M2228 2773 c12 -2 30 -2 40 0 9 3 -1 5 -23 4 -22 0 -30 -2 -17 -4z"/>
<path d="M3246 3441 c-10 -10 -32 -25 -49 -32 -18 -7 -33 -13 -35 -15 -6 -4
36 -80 52 -93 8 -7 20 -10 26 -6 8 5 3 11 -12 19 -27 14 -31 49 -6 54 13 2 16
-1 12 -12 -8 -20 9 -21 25 -2 9 11 9 15 -1 19 -10 4 -10 8 2 16 22 16 35 7 33
-23 -2 -28 14 -36 23 -11 4 8 -7 36 -23 60 -29 44 -30 45 -47 26z"/>
<path d="M1700 3427 c-21 -16 -50 -59 -50 -73 0 -6 13 -17 29 -24 16 -6 39
-21 51 -32 21 -19 22 -19 35 -2 18 24 19 44 1 44 -11 0 -14 12 -13 48 2 40 -1
47 -18 49 -11 2 -27 -3 -35 -10z m37 -42 c3 -9 3 -19 -1 -22 -8 -9 -56 14 -56
27 0 16 50 12 57 -5z"/>
<path d="M3315 3275 c-16 -8 -40 -14 -52 -15 -23 0 -28 -14 -17 -44 4 -11 14
-14 33 -10 l26 5 -23 -19 c-19 -18 -21 -24 -11 -49 l10 -28 18 24 c13 17 24
22 36 17 40 -15 57 37 34 103 -12 35 -12 35 -54 16z m51 -64 c-9 -14 -56 -14
-56 -1 0 14 43 30 54 20 4 -5 5 -13 2 -19z"/>
<path d="M1612 3258 c-22 -27 -32 -69 -22 -89 15 -27 34 -24 73 11 41 36 49
37 45 8 -2 -14 -12 -24 -27 -28 -33 -8 -41 -33 -10 -28 34 4 66 70 50 104 -14
31 -29 30 -71 -6 -40 -33 -50 -36 -50 -15 0 8 11 17 25 21 14 4 24 11 22 17
-5 17 -23 19 -35 5z"/>
<path d="M3131 1718 c-76 -21 -113 -68 -113 -143 0 -109 96 -171 221 -144 52
11 71 29 71 68 0 12 5 30 12 41 17 27 6 33 -62 33 -66 0 -90 -12 -65 -33 19
-15 20 -70 2 -70 -35 0 -77 75 -77 138 0 56 20 87 54 87 30 0 41 -12 50 -57
11 -50 86 -44 86 7 0 57 -97 97 -179 73z"/>
<path d="M4063 1711 c-30 -14 -44 -28 -49 -47 -12 -48 6 -75 77 -113 103 -56
121 -79 80 -101 -31 -16 -68 4 -88 47 -15 32 -23 38 -48 38 -26 0 -30 -4 -33
-29 -5 -38 24 -61 96 -77 41 -10 64 -10 104 0 67 15 88 34 88 81 0 44 -7 50
-104 105 -73 42 -96 75 -60 89 28 11 48 -2 69 -41 15 -28 26 -38 45 -38 21 0
25 5 25 29 0 61 -122 95 -202 57z"/>
<path d="M728 1714 c-22 -7 -22 -5 -3 -40 20 -39 20 -160 0 -198 -9 -16 -13
-32 -9 -35 3 -3 54 -6 112 -6 84 0 114 4 140 18 67 37 66 103 -2 128 -36 13
-48 29 -23 29 23 0 49 37 43 58 -4 10 -19 25 -34 32 -27 13 -192 23 -224 14z
m170 -52 c4 -28 -14 -52 -39 -52 -16 0 -19 8 -19 41 0 38 1 40 28 37 19 -2 28
-9 30 -26z m0 -94 c16 -16 16 -80 0 -96 -7 -7 -22 -12 -35 -12 -21 0 -23 4
-23 60 0 56 2 60 23 60 13 0 28 -5 35 -12z"/>
<path d="M1041 1711 c-11 -7 -10 -11 6 -20 11 -5 37 -38 57 -71 38 -65 49
-133 24 -158 -20 -20 8 -32 74 -32 57 0 80 12 59 33 -6 6 -11 29 -11 51 0 45
59 159 91 176 28 16 14 30 -30 30 -43 0 -55 -8 -41 -26 8 -8 4 -25 -12 -58
-12 -25 -25 -46 -28 -46 -13 0 -51 81 -48 102 3 22 -1 23 -62 26 -36 1 -71 -2
-79 -7z"/>
<path d="M1381 1706 c-15 -18 -10 -98 5 -103 6 -2 17 16 23 42 10 38 15 45 36
45 l25 0 0 -108 c0 -73 -4 -112 -12 -120 -20 -20 8 -32 74 -32 57 0 80 12 59
33 -7 7 -11 53 -11 119 l0 108 25 0 c21 0 26 -7 36 -45 14 -56 33 -54 37 4 5
68 -2 71 -153 71 -103 0 -135 -3 -144 -14z"/>
<path d="M1711 1711 c-10 -6 -11 -13 -2 -29 6 -11 11 -60 11 -107 0 -47 -5
-96 -11 -107 -17 -32 3 -38 132 -38 127 0 139 5 139 57 0 42 -19 43 -42 3 -15
-26 -23 -30 -62 -30 -44 0 -44 0 -51 41 -9 54 6 70 36 35 29 -34 39 -25 39 34
0 59 -10 68 -39 34 -31 -36 -46 -19 -37 41 l7 46 42 -3 c33 -2 44 -8 54 -28
16 -33 37 -32 41 3 6 50 -9 57 -132 57 -61 0 -117 -4 -125 -9z"/>
<path d="M2018 1714 c-22 -7 -22 -13 -3 -38 22 -28 21 -174 -1 -204 -9 -13
-13 -26 -9 -30 4 -4 42 -9 86 -11 135 -6 219 29 219 90 0 30 -40 69 -71 69
-29 0 -23 14 11 27 43 16 42 56 -2 80 -33 17 -191 28 -230 17z m170 -55 c3
-29 -20 -54 -43 -45 -15 5 -21 57 -8 70 16 16 48 1 51 -25z m10 -111 c18 -39
-2 -83 -38 -83 -23 0 -25 4 -28 58 l-3 58 28 -3 c19 -2 32 -12 41 -30z"/>
<path d="M2342 1712 c-10 -7 -10 -14 3 -38 9 -19 15 -57 15 -107 0 -73 2 -81
28 -107 51 -51 162 -50 208 1 15 17 20 41 22 113 3 63 9 96 19 108 21 24 8 38
-37 38 -45 0 -58 -14 -36 -39 12 -13 16 -38 16 -94 0 -85 -12 -123 -44 -131
-31 -8 -34 -8 -56 14 -17 17 -20 33 -20 106 0 47 5 95 11 106 9 16 8 23 -2 29
-18 11 -110 11 -127 1z"/>
<path d="M2688 1713 c-22 -5 -22 -12 -3 -37 22 -29 21 -174 -1 -205 -22 -31
-6 -41 66 -41 69 0 85 9 65 36 -18 24 -19 64 -1 64 21 0 39 -28 38 -60 0 -24
4 -31 24 -36 27 -7 111 0 121 10 3 3 -11 24 -31 46 -42 46 -43 53 -16 80 28
28 26 81 -2 107 -13 12 -41 26 -63 32 -39 11 -163 13 -197 4z m171 -37 c17
-20 10 -97 -10 -109 -32 -20 -49 -1 -49 56 0 30 3 57 7 60 11 12 40 8 52 -7z"/>
<path d="M3368 1713 c-22 -5 -22 -4 -3 -39 20 -39 20 -160 0 -198 -9 -16 -13
-32 -9 -35 8 -8 220 -14 250 -7 20 5 24 12 24 46 0 48 -14 51 -35 10 -14 -27
-21 -30 -61 -30 -50 0 -57 8 -52 66 l3 39 26 -27 c14 -15 29 -25 32 -21 9 8 9
113 1 113 -4 0 -18 -12 -33 -27 l-26 -28 -3 44 c-5 61 2 71 43 71 29 0 39 -5
53 -30 20 -35 36 -34 40 4 6 49 -10 56 -127 55 -58 -1 -114 -3 -123 -6z"/>
<path d="M3668 1713 c-22 -5 -22 -12 -3 -37 22 -29 21 -174 -1 -205 -22 -31
-6 -41 66 -41 69 0 85 9 65 36 -18 24 -19 64 -1 64 21 0 39 -28 38 -60 0 -24
4 -31 24 -36 27 -7 111 0 121 10 3 3 -11 24 -31 46 -42 46 -43 53 -16 80 28
28 26 81 -2 107 -13 12 -41 26 -63 32 -39 11 -163 13 -197 4z m171 -37 c17
-20 10 -97 -10 -109 -32 -20 -49 -1 -49 56 0 30 3 57 7 60 11 12 40 8 52 -7z"/>
<path d="M1973 1213 c-24 -9 -13 -42 20 -60 25 -14 28 -18 14 -21 -10 -2 -24
4 -31 14 -10 13 -15 14 -21 4 -10 -17 12 -30 53 -30 42 0 54 26 24 51 -12 9
-28 19 -35 22 -6 2 -9 8 -5 12 4 4 14 2 23 -5 9 -7 19 -10 22 -6 16 16 -35 31
-64 19z"/>
<path d="M2089 1218 c0 -2 -1 -24 -2 -50 -3 -42 0 -48 18 -48 17 0 20 6 19 47
-1 36 -6 49 -18 51 -9 2 -16 2 -17 0z"/>
<path d="M2170 1170 c0 -27 5 -50 10 -50 6 0 10 12 10 28 l1 27 22 -27 c34
-42 47 -36 47 22 0 30 -4 50 -11 50 -7 0 -9 -10 -4 -27 l7 -28 -29 28 c-42 40
-53 35 -53 -23z"/>
<path d="M2315 1204 c-19 -20 -16 -63 6 -77 20 -13 65 -2 73 18 4 12 2 13 -14
3 -22 -14 -50 4 -50 33 0 25 21 35 32 15 11 -20 28 -21 28 -2 0 28 -50 34 -75
10z"/>
<path d="M2439 1218 c0 -2 -1 -24 -2 -50 l-3 -48 43 0 c35 0 43 3 42 18 0 10
-3 12 -6 5 -7 -18 -43 -16 -43 2 0 9 6 12 15 9 10 -4 15 0 15 11 0 11 -5 15
-15 11 -9 -3 -15 0 -15 9 0 21 19 28 37 13 14 -11 16 -11 11 2 -4 12 -77 29
-79 18z"/>
<path d="M2628 1209 c-22 -12 -23 -29 -3 -29 8 0 15 7 15 15 0 8 5 15 10 15
18 0 10 -26 -15 -50 -34 -32 -32 -40 15 -40 29 0 40 4 40 15 0 9 -9 15 -22 15
l-22 0 22 16 c26 18 29 39 6 48 -21 8 -26 7 -46 -5z"/>
<path d="M2748 1209 c-21 -12 -24 -59 -6 -77 7 -7 21 -12 33 -12 43 0 61 53
29 84 -18 18 -32 20 -56 5z m40 -52 c-2 -12 -7 -22 -13 -22 -12 0 -19 41 -10
63 6 16 7 16 16 -1 6 -10 9 -28 7 -40z"/>
<path d="M2873 1213 c-15 -6 -17 -33 -3 -33 6 0 10 7 10 15 0 8 5 15 10 15 17
0 11 -26 -10 -45 -31 -28 -25 -45 14 -45 43 0 60 30 18 31 -27 0 -27 1 -4 11
46 23 13 71 -35 51z"/>
<path d="M2992 1190 c-26 -35 -27 -40 -7 -40 8 0 15 -7 15 -15 0 -9 9 -15 23
-15 19 0 23 5 21 23 -1 12 -3 34 -3 50 -1 35 -22 35 -49 -3z m18 -15 c0 -8 -7
-15 -16 -15 -14 0 -14 3 -4 15 7 8 14 15 16 15 2 0 4 -7 4 -15z"/>
</g>
</svg>
